<svg width="60" height="58" viewBox="0 0 60 58" fill="none" xmlns="http://www.w3.org/2000/svg">
<path fill-rule="evenodd" clip-rule="evenodd" d="M21.7969 0C9.75879 0 0 9.81698 0 21.9268V57.0569C0 57.5778 0.419733 58 0.9375 58H38.2031C50.2412 58 60 48.183 60 36.0732V21.9268C60 9.81698 50.2412 0 38.2031 0H21.7969Z" fill="#EE2E5D"/>
<path fill-rule="evenodd" clip-rule="evenodd" d="M37.9688 16.2682C37.9688 15.6172 38.4934 15.0894 39.1406 15.0894H43.8281C44.4753 15.0894 45 15.6172 45 16.2682V37.4877C45 40.4826 42.5865 42.9105 39.6094 42.9105H39.1406C38.4934 42.9105 37.9688 42.3827 37.9688 41.7316V16.2682ZM16.1719 18.6259C15.5247 18.6259 15 19.1537 15 19.8048V41.7316C15 42.3827 15.5247 42.9105 16.1719 42.9105H20.8594C21.5066 42.9105 22.0312 42.3827 22.0312 41.7316V19.8048C22.0312 19.1537 21.5066 18.6259 20.8594 18.6259H16.1719ZM27.6562 21.9268C27.009 21.9268 26.4844 22.4545 26.4844 23.1056V41.7316C26.4844 42.3827 27.009 42.9105 27.6562 42.9105H32.3438C32.991 42.9105 33.5156 42.3827 33.5156 41.7316V23.1056C33.5156 22.4545 32.991 21.9268 32.3438 21.9268H27.6562Z" fill="white"/>
</svg>
