<svg width="48" height="48" viewBox="0 0 48 48" fill="none" xmlns="http://www.w3.org/2000/svg">
<path fill-rule="evenodd" clip-rule="evenodd" d="M17.4375 0C7.80703 0 0 8.12439 0 18.1463V47.2195C0 47.6506 0.335786 48 0.75 48H30.5625C40.193 48 48 39.8756 48 29.8537V18.1463C48 8.12439 40.193 0 30.5625 0H17.4375Z" fill="#EE2E5D"/>
<path fill-rule="evenodd" clip-rule="evenodd" d="M30.375 13.9746C30.375 13.4363 30.7947 13 31.3125 13H35.0625C35.5803 13 36 13.4363 36 13.9746V31.5169C36 33.9929 34.0692 36 31.6875 36H31.3125C30.7947 36 30.375 35.5637 30.375 35.0254V13.9746ZM12.9375 15.9237C12.4197 15.9237 12 16.3601 12 16.8983V35.0254C12 35.5637 12.4197 36 12.9375 36H16.6875C17.2053 36 17.625 35.5637 17.625 35.0254V16.8983C17.625 16.3601 17.2053 15.9237 16.6875 15.9237H12.9375ZM22.125 18.6525C21.6072 18.6525 21.1875 19.0889 21.1875 19.6271V35.0254C21.1875 35.5637 21.6072 36 22.125 36H25.875C26.3928 36 26.8125 35.5637 26.8125 35.0254V19.6271C26.8125 19.0889 26.3928 18.6525 25.875 18.6525H22.125Z" fill="white"/>
</svg>
