<svg width="60" height="58" viewBox="0 0 60 58" fill="none" xmlns="http://www.w3.org/2000/svg">
<path fill-rule="evenodd" clip-rule="evenodd" d="M38.2031 0C50.2412 0 60 9.81698 60 21.9268V57.0569C60 57.5778 59.5803 58 59.0625 58H21.7969C9.7588 58 0 48.183 0 36.0732V21.9268C0 9.81698 9.7588 0 21.7969 0H38.2031Z" fill="#2E2D33"/>
<path d="M30 13C34.42 13 38 16.58 38 21C38 25.42 34.42 29 30 29C25.58 29 22 25.42 22 21C22 16.58 25.58 13 30 13ZM30 45C30 45 46 45 46 41C46 36.2 38.2 31 30 31C21.8 31 14 36.2 14 41C14 45 30 45 30 45Z" fill="white"/>
</svg>
