<svg width="48" height="48" viewBox="0 0 48 48" fill="none" xmlns="http://www.w3.org/2000/svg">
<path fill-rule="evenodd" clip-rule="evenodd" d="M30.5625 0C40.193 0 48 8.12439 48 18.1463V47.2195C48 47.6506 47.6642 48 47.25 48H17.4375C7.80704 48 -7.15256e-07 39.8756 -7.15256e-07 29.8537V18.1463C-7.15256e-07 8.12439 7.80704 0 17.4375 0H30.5625Z" fill="#2E2D33"/>
<path d="M24 11C27.5913 11 30.5 13.9087 30.5 17.5C30.5 21.0913 27.5913 24 24 24C20.4087 24 17.5 21.0913 17.5 17.5C17.5 13.9087 20.4087 11 24 11ZM24 37C24 37 37 37 37 33.75C37 29.85 30.6625 25.625 24 25.625C17.3375 25.625 11 29.85 11 33.75C11 37 24 37 24 37Z" fill="white"/>
</svg>
